<?xml version="1.0" encoding="UTF-8"?>
<svg id="Layer_2" data-name="Layer 2" xmlns="http://www.w3.org/2000/svg" viewBox="0 0 709.65 618.2">
  <defs>
    <style>
      .cls-1 {
        fill: #daa54b;
      }

      .cls-2 {
        fill: #fff;
      }
    </style>
  </defs>
  <g id="Layer_1-2" data-name="Layer 1">
    <g>
      <g>
        <path class="cls-1" d="M375.81,92.6l7.79-7.94c6.39-4.19,15.08-2.33,20.37,2.78,3.7,3.58,5.2,12.94,11.35,7.94,1.44-1.17,5.8-8.45,7.15-10.61,1.61-2.57,10.31-17.01,10.52-18.63.41-3.2-3.6-5.67-5.36-8.82-11.13-19.96,9.12-44.93,30.83-34.87,18.53,8.59,18.53,40.69-1.9,47.15-2.38.75-5.89.38-8.05,1.64-3.21,1.87-5.11,15.45-5.59,19.44-.91,7.55-1.2,15.16-.77,22.77,7.76,4.4,14.05,1.39,21.1-2.44,4.9-2.66,9.59-6.22,14.16-9.54,2.1-1.52,2.95-4.2,2.24-6.69-2.89-10.1,5.04-21.44,15.46-22.96,30.29-4.43,34.12,45.76-1.01,42.57-7.34-.67-7.58-4.55-12.66,3.51-4.06,6.44-23.15,53.9-22.46,59.01.42,3.11,2.31,4.33,1.55,8.91-.46,2.79-2.57,3.53-3.01,5.06-.72,2.52.34,5.54-.53,8.35-.67,2.2-4.02,4.21-4.47,6.87s.87,5.26.86,8.01c-.17,24.69-32.07,33.53-51.58,37.31-36.79,7.14-83.9,6.43-119.06-7.23-14.43-5.61-30.51-14.27-27.85-32.29.32-2.15,2.84-7.09,2.8-7.49-.06-.71-4.83-4.33-5.38-8.11-.41-2.77.69-5.18.51-7.11-.17-1.77-2.13-3.92-2.22-6.59-.09-2.94,1.84-4.91,1.5-7.83-.93-8.16-12.87-35.02-16.92-43.7-1.35-2.88-8.89-18.58-10.39-19.51-2.16-1.34-5.84,1.58-8.54,1.97-22.68,3.23-35.75-23.03-18.84-37.41,15.6-13.26,36.95,3.03,31.56,21.67l.65.85c9.82,5.59,20.15,16.46,31.92,17.38,5.9.46,9.44.48,9.35-6.05-.06-3.87-.54-9.75-.89-13.71-.76-8.61-2.2-17.48-4.78-25.7-1.22-1.84-4.82-1.03-6.72-1.56-32.57-9.15-16.62-57.2,12.29-47.82,13.75,4.46,20.19,22.11,13.89,34.84-1.28,2.59-5.71,6.45-5.6,8.6l16.77,30.42c1.64,1.17,6.04-7.17,7.54-8.59,10.88-10.3,26.35-1.51,28.37,11.82,6.11-7.74,9.14-19.3,11.47-28.9.91-3.73,3.52-13.6,3.51-16.77-.01-3.38-3.06-3-5.16-4.52-24.96-18.08-3.65-58.22,23.88-45.68,15.73,7.17,18.48,30.57,6.71,42.61-1.91,1.96-8.28,5.01-8.55,6.85-.46,3.13,4.05,19.71,5.29,23.8,1.8,5.92,3.86,11.55,6.87,16.95Z"/>
        <path d="M479.34,245.71c-52.05,16.28-91.74,53.88-124.13,96.28-23.64-25.71-44.83-51.46-74.1-71.22C133.42,171.12-36.88,316.46,7.03,480.25c17.3,64.53,68.58,122.12,136.08,134.41,89.6,16.32,162.78-42.82,210.09-111.98,4.78,2.59,6.47,7.01,9.7,10.88,52.89,63.32,122.5,121.47,211.53,100.15,73.5-17.6,118.79-78.29,132.17-150.43,23.78-128.18-95.68-258.73-227.27-217.58ZM285.34,435.24c-18.02,22.54-44.09,56.65-71.05,67.83-34.58,14.35-81.41,6.65-100.24-28.11-38.13-70.38,23.2-155.97,102.3-127.33,34.03,12.32,53.77,39.06,76.29,65.01q2.03,2.34,5.64,6.39s-8.62,10.81-12.93,16.21ZM561.24,504.44c-57.48,24.25-102.85-25.03-135.36-65.16-2.09-2.57-17.12-18.56-16.98-20.25,25.84-34.18,58.74-71.02,104.8-75.18,21.15-1.91,41.29,1.85,58.56,14.45,50.19,36.61,49.39,120.65-11.02,146.14Z"/>
      </g>
      <g>
        <g>
          <path class="cls-2" d="M459.67,346.76c-.12,4.55-.71,8.98-4.14,12.4-4.09,4.08-9.96,2.84-12.02-2.55-1.61-4.21-2.01-8.63-1.72-13.11.04-.62.26-1.27.54-1.82,1.1-2.18,3.82-2.42,5.16-.39.55.83.89,1.9,1.03,2.9.6,4.13.03,8.15-1.67,11.96-.41.92-.21,1.47.5,2.04,1.45,1.18,3.7,1.23,5.5.05,1.79-1.18,2.87-2.91,3.41-4.93.46-1.69.78-3.43.98-5.18.14-1.22.62-1.84,1.86-1.83l.56.45ZM445.04,353.48c.11.01.21.02.32.03.26-1.19.7-2.38.74-3.57.06-2.18-.07-4.37-.23-6.55-.03-.36-.55-.69-.84-1.03-.27.36-.73.7-.78,1.08-.38,3.4.03,6.74.78,10.04Z"/>
          <path class="cls-2" d="M340.51,380.99c-.23-1.47-.42-2.56-.58-3.66-1.58-10.84-1.36-21.72-.58-32.6.19-2.66.17-5.35,1.3-7.89,1.04-2.35,4.33-3.51,6.32-1.89,1.14.93,2.11,2.21,2.77,3.53,7.97,16.02,15.85,32.08,23.77,48.12,1.79,3.63,3.62,7.23,6.37,10.27,2.61,2.89,5.9,4.78,9.37,6.37,5.34,2.44,9.64,6.1,13.17,10.74.56.73,1.18,1.42,1.87,2.03.42.37,1.06.48,1.53.8.41.29,1.04.74,1.02,1.08-.04.46-.57,1.2-.95,1.24-.69.08-1.59-.07-2.1-.49-1.29-1.06-2.56-2.21-3.56-3.54-3.41-4.53-7.75-7.83-12.9-10.1-6.64-2.93-11.28-7.86-14.45-14.31-5.18-10.52-10.41-21.02-15.61-31.53-3.19-6.46-6.36-12.93-9.56-19.38-.41-.82-.87-1.64-1.46-2.33-1-1.18-2.23-1.14-3.11.13-.48.7-.86,1.59-.93,2.43-1.29,14.07-1.84,28.14,1.02,42.11.19.92.59,1.56,1.31,2.16,17.62,14.68,33.79,30.78,48,48.82.74.94.98,1.59,0,2.49-.47.44-.77.51-1.33.2-6.57-3.66-13.28-7.09-19.71-10.99-8.59-5.22-16.16-11.67-21.74-20.19-3.79-5.79-6.37-12.09-8.15-18.75-.18-.67-.64-1.37-1.18-1.82-1.98-1.69-4.03-3.29-6.07-4.92-.72-.58-1.5-1.19-.72-2.16.73-.9,1.49-.34,2.18.23,1.45,1.19,2.92,2.37,4.68,3.8ZM344.77,387.58c0,.34-.02.46.01.57,3.19,10.47,8.77,19.4,17.08,26.6,7.5,6.5,16.03,11.37,24.77,15.94.19.1.43.11.64.17-12.6-15.91-26.94-30.05-42.5-43.28Z"/>
          <path class="cls-2" d="M416.3,407.72c-1.34,1.33-2.92,2.64-4.49,3.2-3.31,1.19-6.45-.19-8.12-3.29-.38-.7-.7-1.45-.93-2.21-1.15-3.83-1.6-7.75-1.39-11.75.07-1.31.42-2.53,1.56-3.37,1.35-.99,3.11-.83,4.02.56.59.91,1.03,2.01,1.19,3.08.62,4.13.05,8.15-1.65,11.96-.44.99-.18,1.55.57,2.13,1.42,1.11,3.65,1.14,5.41,0,1.76-1.15,2.85-2.84,3.38-4.81.49-1.81.76-3.68,1.07-5.53.15-.88.39-1.63,1.45-1.5,1.02.13,1.06.93.97,1.74-.39,3.31-.86,6.6-2.83,9.44M404.82,403.32c1.14-3.25,1.52-6.58.76-9.98-.1-.44-.56-.79-.86-1.18-.3.42-.61.84-.88,1.28-.08.12-.05.31-.06.47-.15,3.18.17,6.31,1.04,9.41Z"/>
          <path class="cls-2" d="M429.52,391.42c-2.81,3.44-7.16,4.44-10.14,2.22-1.13-.84-2.13-2.13-2.67-3.43-1.79-4.32-2.19-8.9-1.88-13.55.04-.58.26-1.18.52-1.71,1.15-2.28,4-2.42,5.3-.21.47.8.77,1.77.9,2.7.59,4.14.04,8.15-1.67,11.96-.41.92-.22,1.47.49,2.04,1.45,1.19,3.69,1.24,5.5.06,1.76-1.15,2.84-2.84,3.38-4.81.49-1.8.76-3.67,1.07-5.53.15-.88.4-1.64,1.46-1.48.99.15,1.06.93.96,1.76-.39,3.27-.85,6.52-2.77,9.33-.18.26-.37.53-.44.63ZM418.21,386.82c1.15-3.3,1.54-6.65.73-10.07-.1-.42-.6-.74-.91-1.1-.27.41-.55.8-.79,1.23-.09.16-.07.39-.08.59-.13,3.16.18,6.28,1.04,9.36Z"/>
          <path class="cls-2" d="M430.26,361.35c-.05,4.44.79,8.8,3.14,12.76,1.92,3.23,5.23,3.25,7.32.11,2.05-3.08,2.58-6.5,1.95-10.12-.07-.39-.3-.84-.19-1.17.16-.46.52-1.09.9-1.17.38-.08.99.31,1.32.67.26.29.27.82.34,1.25.72,4.15.09,8.05-2.16,11.65-2.05,3.27-5.78,4.61-8.64,2.91-1.15-.69-2.25-1.76-2.92-2.92-2.78-4.77-3.78-9.99-3.39-15.48.08-1.14.49-2.13,1.7-2.51,1.04-.32,1.91.07,2.56.88.79.97.94,2.13.61,3.29-.09.31-.69.7-.99.66-.51-.08-.98-.48-1.55-.8Z"/>
        </g>
        <g>
          <path class="cls-2" d="M247.78,570.08c-.38-.88,0-1.61.44-2.36,2.2-3.86,4.4-7.72,6.57-11.6.21-.38.37-.92.29-1.33-2.67-13.01-3.77-26.23-5.31-39.39-.77-6.52-1.68-13.03-2.69-19.51-.3-1.91-1.06-3.77-1.76-5.59-.26-.68-.97-1.19-1.64-1.97-1.76,3.52-3.42,6.75-5,10.02-4.76,9.85-8.9,19.96-12.42,30.31-.29.86-.72,1.52-1.72,1.17-.94-.33-.88-1.11-.61-1.9,4.79-13.96,10.62-27.47,17.56-40.5.79-1.48,2.1-1.82,3.52-.91,1.44.91,2.5,2.18,2.98,3.8.69,2.33,1.47,4.68,1.78,7.08,1.51,11.59,2.82,23.21,4.3,34.81.79,6.19,1.78,12.36,2.69,18.54.06.38.16.76.3,1.41,1.51-2.58,2.87-4.95,4.27-7.3,3.63-6.13,7.28-12.25,10.91-18.39.49-.82,1.03-1.61,2.05-.97.97.61.47,1.45.03,2.21-5.29,8.96-10.57,17.94-15.88,26.89-.51.86-.61,1.63-.38,2.6,1.47,6.29,3.24,12.48,5.77,18.43.59,1.38,1.4,2.71,2.35,3.87,1.29,1.56,3.06,1.8,4.74.67,1.18-.79,2.28-1.79,3.15-2.91,6.96-8.88,12.93-18.4,18.02-28.47.45-.89.91-1.78,1.33-2.69.36-.78.93-1.15,1.73-.76.83.4.81,1.13.43,1.85-1.74,3.34-3.42,6.71-5.25,9.99-3.9,7.01-8.31,13.69-13.18,20.06-1.23,1.61-2.6,3.18-4.17,4.44-3.17,2.53-6.88,2.03-9.22-1.29-1.25-1.77-2.26-3.8-2.96-5.86-1.67-4.88-3.09-9.85-4.61-14.78-.06-.18-.09-.37-.21-.83-1.26,2.2-2.38,4.17-3.5,6.13-.77,1.36-1.59,2.69-2.28,4.09-.45.92-1.06,1.36-2.06,1.24l-.37-.3Z"/>
          <path class="cls-2" d="M376.9,496.27c-1.57.25-1.78.13-2.25-1.37-2.28-7.26-4.57-14.51-6.82-21.78-.23-.75-.55-1.16-1.36-1.41-5.12-1.66-9.38-4.62-12.76-8.81-.34-.42-.53-1.2-.39-1.7.22-.81,1.28-.83,1.96-.12.89.92,1.7,1.92,2.62,2.8,2.44,2.31,5.24,4.06,8.63,5.31-.16-.56-.26-.95-.38-1.34-2.32-7.37-4.64-14.74-6.94-22.12-.28-.89-.99-1.96.41-2.57.85-.37,1.34.15,1.86,1.79,5.09,16.19,10.18,32.39,15.26,48.58.22.71.4,1.44.6,2.16l-.45.56Z"/>
          <path class="cls-2" d="M327.57,513.24c-.79.28-1.47.51-2.2.77-.2-.43-.37-.78-.52-1.14-9.98-23.41-23.8-44.26-41.57-62.49-.62-.64-1.06-1.33-.31-2.07.77-.75,1.44-.25,2.05.38,7.39,7.58,14.15,15.68,20.28,24.31,6.6,9.28,12.39,19.04,17.53,29.29-.02-.31-.05-.61-.05-.92,0-2.03-.27-4.11.09-6.08.75-4.15,4.54-5.64,8-3.25,1.19.83,2.16,2,3.16,3.08.79.85,1.35,1.93,2.22,2.67.81.7,1.84,1.23,2.86,1.56.83.27,1.47.5,1.34,1.47-.13.94-.88,1.03-1.65.97-1.69-.14-3.05-.96-4.17-2.16-.84-.9-1.54-1.94-2.37-2.86-.88-.97-1.74-2.01-2.8-2.76-1.92-1.39-3.73-.67-4.23,1.65-.26,1.19-.37,2.49-.18,3.69.65,4.23,1.45,8.43,2.2,12.64.07.39.19.77.32,1.26Z"/>
          <path class="cls-2" d="M344.97,488.24c.11.75.2,1.33.28,1.91.1.83.23,1.67.28,2.51.12,2.09-.67,3.61-2.13,4.19-1.5.59-3.2,0-4.48-1.71-3.86-5.2-5.91-11.05-6.12-17.52-.05-1.44.3-2.76,1.82-3.33,1.5-.56,2.85-.06,3.78,1.1,1.38,1.71,2.57,3.56,3.86,5.35,1.22,1.68,2.41,3.39,3.71,5,.33.4,1.06.48,1.61.7.14-.62.42-1.25.4-1.87-.03-.57-.38-1.12-.59-1.69-.27-.73-.22-1.38.58-1.7.77-.31,1.32.04,1.64.76.21.48.43.95.59,1.44.55,1.7.54,3.36-.81,4.7-1.3,1.29-2.79,1.09-4.41.15ZM335.46,476.28c-.15.5-.21.65-.23.8-.03.2-.05.4-.04.6.28,5.91,2.11,11.28,5.69,16,.34.45,1.1.59,1.66.87.19-.57.56-1.15.55-1.72-.15-5.94-2.26-11.12-6.2-15.56-.33-.38-.84-.6-1.43-.99Z"/>
          <path class="cls-2" d="M305.3,535.93c.06,1.2.09,2.47.19,3.74.19,2.43-.53,4.05-2.1,4.68-1.61.64-3.34-.08-4.77-2.08-3.56-4.98-5.5-10.54-5.83-16.65-.03-.52-.02-1.05.07-1.55.38-2.11,2.39-3.13,4.28-2.09.78.43,1.51,1.09,2.03,1.82,1.75,2.44,3.37,4.97,5.09,7.42.59.85,1.28,1.64,2.03,2.36.28.27.96.48,1.24.33.31-.17.57-.81.53-1.2-.08-.74-.37-1.46-.63-2.17-.28-.76-.35-1.46.5-1.83.83-.36,1.43.05,1.69.84.35,1.05.81,2.13.86,3.21.13,2.88-2.32,4.44-4.94,3.28-.14-.06-.29-.12-.23-.1ZM301.22,541.78c.39.09,1.07.42,1.22.25.36-.38.66-1.01.65-1.52-.12-5.97-2.15-11.23-6.17-15.67-.33-.37-.91-.52-1.38-.78-.11.48-.35.96-.32,1.43.23,4.84,1.61,9.34,4.13,13.49.56.92,1.19,1.79,1.87,2.81Z"/>
          <path class="cls-2" d="M307.28,510.59c-.03,4.3.8,8.62,3.1,12.55,1.95,3.34,5.33,3.36,7.45.08,2.01-3.1,2.51-6.52,1.86-10.13-.06-.35-.28-.77-.17-1.05.19-.46.53-1.08.91-1.17.38-.09.92.37,1.33.66.15.11.16.44.21.67.9,4.25.37,8.3-1.94,12.01-.66,1.05-1.6,2.02-2.63,2.73-2.76,1.91-6.01,1.39-8.14-1.22-.63-.77-1.18-1.62-1.61-2.52-2.1-4.38-3-9.01-2.72-13.86.11-1.96.99-3.03,2.41-3.01,1.42.02,2.52,1.27,2.63,3.04.05.72.14,1.64-.74,1.79-.58.1-1.25-.35-1.94-.58Z"/>
          <path class="cls-2" d="M353.44,483.91c-.33-.45-.52-.7-.7-.96-5.09-7.5-6.85-15.73-5.33-24.66.06-.35.05-.82.27-1.02.37-.33.92-.7,1.35-.65.34.04.66.65.88,1.07.11.2-.04.54-.09.82-1.49,8.4.17,16.12,4.96,23.17.16.23.43.49.41.71-.05.47-.13,1.08-.45,1.34-.31.25-.91.14-1.3.18Z"/>
        </g>
      </g>
    </g>
  </g>
</svg>